<svg xmlns="http://www.w3.org/2000/svg" viewBox="0 0 128 128"><defs><style>.cls-1{isolation:isolate;}.cls-2{mix-blend-mode:multiply;}.cls-3{fill:#5b361d;stroke:#5b361d;stroke-linecap:round;stroke-linejoin:round;}.cls-4{fill:#9b6f43;}.cls-5{fill:#b78d5c;}</style></defs><title>hedgehog</title><g class="cls-1"><g id="icons" class="cls-2"><polygon class="cls-3" points="98.6 64 104.5 59.18 95.61 54.36 101.54 51.46 93.63 47.61 99.56 42.79 92.65 41.82 95.61 36.04 89.68 37 90.67 31.21 83.76 34.11 81.78 26.39 75.85 32.18 73.88 24.46 68.94 31.21 64 23.5 59.06 31.21 54.12 24.46 52.15 32.18 46.22 26.39 44.24 34.11 37.33 31.21 38.32 37 32.39 36.04 35.35 41.82 28.44 42.79 34.37 47.61 26.46 51.46 32.39 54.36 23.5 59.18 29.4 64 24.49 67.86 28.41 71.71 24.49 76.54 31.4 79.43 26.46 84.25 32.39 84.25 30.41 91 36.34 88.11 36.34 95.82 41.28 92.93 42.27 99.68 48.2 95.82 50.17 101.61 55.11 96.79 59.06 104.5 64 96.79 68.94 104.5 72.89 96.79 77.83 101.61 79.81 95.82 85.73 99.68 86.72 92.93 91.66 95.82 91.66 88.11 97.58 91 95.61 84.25 101.54 84.25 96.6 79.43 103.51 76.54 99.58 71.71 103.51 67.86 98.6 64"/><path class="cls-4" d="M94,66a6,6,0,0,1-5.08,5.92A28,28,0,0,0,90,64.15a18,18,0,0,0-.39-3.93A6,6,0,0,1,94,66Z"/><path class="cls-4" d="M39.08,71.92a6,6,0,0,1-.69-11.7,17.73,17.73,0,0,0-.39,3.9A28.21,28.21,0,0,0,39.08,71.92Z"/><path class="cls-4" d="M72,78.33c0,1.46-2.33,3-4.67,3.92A2,2,0,0,0,66,84.13v3.74a15.45,15.45,0,0,1-4,0V84.13a2,2,0,0,0-1.33-1.88C58.33,81.36,56,79.79,56,78.33,56,76.12,59.58,75,64,75S72,76.12,72,78.33Z"/><path class="cls-5" d="M86,64.13C86,78,75,86.71,66,87.87V84.13a2,2,0,0,1,1.33-1.88c2.34-.89,4.67-2.46,4.67-3.92C72,76.12,68.42,75,64,75s-8,1.12-8,3.33c0,1.46,2.33,3,4.67,3.92A2,2,0,0,1,62,84.13v3.74C53,86.71,42,78,42,64.13,42,58.3,45.22,54,49.81,54,56.38,54,60,57,64,57s7.62-3,14.19-3C82.78,54,86,58.3,86,64.13Z"/><circle cx="73" cy="65" r="4"/><circle cx="55" cy="65" r="4"/></g></g></svg>