<svg xmlns="http://www.w3.org/2000/svg" viewBox="0 0 128 128"><defs><style>.cls-1{isolation:isolate;}.cls-2{mix-blend-mode:multiply;}.cls-3{fill:#b78d5c;}.cls-4{fill:#9b6f43;}.cls-5{fill:#5b361d;}</style></defs><title>moose</title><g class="cls-1"><g id="icons" class="cls-2"><path class="cls-3" d="M64,105c-20,0-32-22-32-49,0-22.64,14-33,32-33S96,33.36,96,56C96,83,84,105,64,105Z"/><path d="M40.75,31.5a26.49,26.49,0,0,0-4.64,6.22A102.24,102.24,0,0,0,19,35.23a9.35,9.35,0,0,1-7.57-4.15c-3.12-4.82-2-12.72.08-18.51,1-2.7,2-4.07,3.12-4.07a1.48,1.48,0,0,1,1.2.53c.78.93.41,2.82.12,4.33l-.06.33a49.79,49.79,0,0,0-.9,10c0,2.9.73,4.79,1.9,4.94,1.4.17,3.42-2,4.4-6,.64-2.57,1.55-4.08,2.64-4.38a1.45,1.45,0,0,1,1.46.43c1.13,1.14,1.34,4,.51,7-.62,2.17-.08,3.65.56,4.26a1.45,1.45,0,0,0,1.54.3c1.51-.54,3.4-3.28,4.21-9.36.76-5.78,1.92-6.21,2.3-6.35a1.13,1.13,0,0,1,1.2.28c1.82,1.62,2.72,9.3,1.24,15.85C38.34,30.93,39.61,31.21,40.75,31.5Z"/><path d="M116.57,31.08A9.35,9.35,0,0,1,109,35.23a102.24,102.24,0,0,0-17.11,2.49,26.49,26.49,0,0,0-4.64-6.22c1.14-.29,2.41-.57,3.8-.84-1.48-6.55-.58-14.23,1.24-15.85a1.13,1.13,0,0,1,1.2-.28c.38.14,1.54.57,2.3,6.35.81,6.08,2.7,8.82,4.21,9.36a1.45,1.45,0,0,0,1.54-.3c.64-.61,1.18-2.09.56-4.26-.83-3-.62-5.83.51-7a1.45,1.45,0,0,1,1.46-.43c1.09.3,2,1.81,2.64,4.38,1,4,3,6.13,4.4,6,1.17-.15,1.9-2,1.9-4.94a49.79,49.79,0,0,0-.9-10l-.06-.33c-.29-1.51-.66-3.4.12-4.33a1.48,1.48,0,0,1,1.2-.53c1.1,0,2.15,1.37,3.12,4.07C118.57,18.36,119.69,26.26,116.57,31.08Z"/><circle class="cls-4" cx="64" cy="79" r="18"/><path class="cls-5" d="M62,79a4,4,0,1,1-4-4A4,4,0,0,1,62,79Zm8-4a4,4,0,1,0,4,4A4,4,0,0,0,70,75Z"/><circle cx="47" cy="50" r="4"/><circle cx="81" cy="50" r="4"/></g></g></svg>