<svg xmlns="http://www.w3.org/2000/svg" viewBox="0 0 128 128"><defs><style>.cls-1{isolation:isolate;}.cls-2{mix-blend-mode:multiply;}.cls-3{fill:#e4e7ed;}.cls-4{fill:#ea659b;}.cls-5{fill:#5a6070;}</style></defs><title>mouse</title><g class="cls-1"><g id="icons" class="cls-2"><path class="cls-3" d="M64,23C35.8,23,28.41,38,29.86,54.23A62.33,62.33,0,0,0,35.37,74C42.06,88.72,49,99.23,56.85,103.22a3.41,3.41,0,0,1-.85-2,3,3,0,0,1,1.11-2.31C58.5,97.62,61.06,97,64,97s5.5.62,6.89,1.85A3,3,0,0,1,72,101.17a3.41,3.41,0,0,1-.85,2C79,99.23,85.94,88.72,92.63,74a62.33,62.33,0,0,0,5.51-19.77C99.59,38,92.2,23,64,23Z"/><path class="cls-4" d="M44.5,26.42C35.22,30.48,31,37.76,30,46.07A17.31,17.31,0,0,1,23.11,42c-5.22-5.21-5.73-13.17,0-18.89s13.68-5.22,18.89,0A15.72,15.72,0,0,1,44.5,26.42Z"/><path class="cls-4" d="M104.89,42A17.31,17.31,0,0,1,98,46.07c-1-8.31-5.26-15.59-14.54-19.65A15.72,15.72,0,0,1,86,23.11c5.21-5.22,13.17-5.73,18.89,0S110.11,36.79,104.89,42Z"/><path class="cls-5" d="M53.78,90.39c-1.54.38-3,.66-4.55.91s-3,.43-4.57.56-3.06.21-4.59.22-3.07,0-4.59-.15a.5.5,0,0,1,0-1h0c1.5,0,3,0,4.49-.1s3-.25,4.47-.46,3-.47,4.42-.79,2.93-.68,4.31-1.11h0a1,1,0,0,1,.59,1.91Z"/><path class="cls-5" d="M52.86,85.37a31.5,31.5,0,0,1-3.82,1c-1.27.24-2.55.44-3.84.56a41.72,41.72,0,0,1-7.72,0,.5.5,0,0,1,.05-1h0A40.48,40.48,0,0,0,45,85.4c1.23-.2,2.45-.46,3.65-.78a30,30,0,0,0,3.49-1.12h0a1,1,0,0,1,.75,1.86Z"/><path class="cls-5" d="M74.78,88.47c1.38.43,2.85.79,4.31,1.11s2.94.58,4.42.79,3,.37,4.47.46,3,.12,4.49.1h0a.5.5,0,0,1,0,1c-1.53.1-3.06.18-4.59.15s-3.07-.09-4.59-.22-3.05-.31-4.57-.56-3-.52-4.55-.91a1,1,0,0,1,.49-1.94h.08Z"/><path class="cls-5" d="M75.86,83.5a30,30,0,0,0,3.49,1.12c1.2.31,2.42.58,3.65.78a40.48,40.48,0,0,0,7.47.54h0a.5.5,0,0,1,.05,1,41.72,41.72,0,0,1-7.72,0c-1.29-.12-2.57-.31-3.84-.56a31.5,31.5,0,0,1-3.82-1,1,1,0,0,1,.62-1.9l.06,0Z"/><path class="cls-4" d="M72,101.17a3.41,3.41,0,0,1-.85,2,16.23,16.23,0,0,1-4.8,1.59,14.63,14.63,0,0,1-4.7,0,16.23,16.23,0,0,1-4.8-1.59,3.41,3.41,0,0,1-.85-2,3,3,0,0,1,1.11-2.31C58.5,97.62,61.06,97,64,97s5.5.62,6.89,1.85A3,3,0,0,1,72,101.17Z"/><circle cx="51" cy="62" r="4"/><circle cx="77" cy="62" r="4"/></g></g></svg>