<svg xmlns="http://www.w3.org/2000/svg" viewBox="0 0 128 128"><defs><style>.cls-1{isolation:isolate;}.cls-2{mix-blend-mode:multiply;}.cls-3{fill:#efb14d;}.cls-4{fill:#cc8333;}.cls-5{fill:#eae0b5;}.cls-6{fill:#5b361d;}</style></defs><title>rabbit</title><g class="cls-1"><g id="icons" class="cls-2"><path class="cls-3" d="M89,67.66a4.08,4.08,0,0,1,0-2.33,26,26,0,1,0-49.88.05,4,4,0,0,1,0,2.27C49.17,68.67,54.41,79,64,79S78.84,68.66,89,67.66Z"/><path class="cls-4" d="M87.67,47.25A26.18,26.18,0,0,0,76,34.92c4.73-15,25.49-18.94,26.84-17.71S99.24,40.77,87.67,47.25Z"/><path class="cls-4" d="M52,34.92A26.07,26.07,0,0,0,40.32,47.25c-11.56-6.49-16.41-28.84-15.12-30S47.31,19.92,52,34.92Z"/><path class="cls-5" d="M37.41,69.85C31.57,73.58,28,78.55,28,84c0,11.6,16.12,21,36,21s36-9.4,36-21c0-5.45-3.57-10.42-9.41-14.15A3.9,3.9,0,0,1,89,67.66C78.84,68.66,73.59,79,64,79S49.17,68.67,39,67.66A3.93,3.93,0,0,1,37.41,69.85Z"/><circle cx="75" cy="59" r="4"/><circle cx="53" cy="59" r="4"/><path class="cls-6" d="M70.45,91.23l-.16.06c-.71.29-1.89.93-2.91,1.34A1,1,0,0,1,66,91.7V86.13a2,2,0,0,1,1.33-1.88c2.35-.89,4.67-2.46,4.67-3.92C72,78.12,68.42,77,64,77s-8,1.12-8,3.33c0,1.46,2.33,3,4.67,3.92A2,2,0,0,1,62,86.13V91.7a1,1,0,0,1-1.38.93c-1-.41-2.2-1-2.91-1.34l-.16-.07a1,1,0,0,0-1.25,1.48,8.78,8.78,0,0,0,3.21,3.06,8.79,8.79,0,0,0,9,0,8.78,8.78,0,0,0,3.21-3.06,1,1,0,0,0-1.26-1.48Z"/><path class="cls-4" d="M52.14,83.43a30,30,0,0,0-3.49-1.12c-1.2-.31-2.42-.58-3.65-.78A40.47,40.47,0,0,0,37.53,81h0a.5.5,0,0,1-.05-1,41.73,41.73,0,0,1,7.72,0c1.29.12,2.57.31,3.84.56a31.5,31.5,0,0,1,3.82,1,1,1,0,0,1-.62,1.9l-.06,0Z"/><path class="cls-4" d="M51.09,88.41a24,24,0,0,0-2.49-1A27.25,27.25,0,0,0,46,86.6a19.87,19.87,0,0,0-5.42-.6h0a.5.5,0,0,1-.08-1,21.1,21.1,0,0,1,5.8.12,28.87,28.87,0,0,1,2.85.58,25.62,25.62,0,0,1,2.81.89,1,1,0,0,1-.72,1.87l-.08,0Z"/><path class="cls-4" d="M75.14,81.57a31.5,31.5,0,0,1,3.82-1c1.27-.24,2.55-.44,3.84-.56a41.73,41.73,0,0,1,7.72,0,.5.5,0,0,1-.05,1h0a40.47,40.47,0,0,0-7.47.54c-1.23.2-2.45.46-3.65.78a30,30,0,0,0-3.49,1.12h0a1,1,0,0,1-.75-1.86Z"/><path class="cls-4" d="M76.09,86.59a25.62,25.62,0,0,1,2.81-.89,28.87,28.87,0,0,1,2.85-.58,21.1,21.1,0,0,1,5.8-.12.5.5,0,0,1-.08,1h0a19.87,19.87,0,0,0-5.42.6,27.25,27.25,0,0,0-2.63.78,24,24,0,0,0-2.49,1h0a1,1,0,0,1-.88-1.8Z"/></g></g></svg>