<svg xmlns="http://www.w3.org/2000/svg" viewBox="0 0 128 128"><defs><style>.cls-1{isolation:isolate;}.cls-2{mix-blend-mode:multiply;}.cls-3{fill:#878c99;}.cls-4{fill:#e4e7ed;}.cls-5{fill:#5a6070;}</style></defs><title>racoon</title><g class="cls-1"><g id="icons" class="cls-2"><path class="cls-3" d="M70,62.77C81,56.66,89.75,61.62,97.38,69.05A12.07,12.07,0,0,1,97,65.82C97,51.64,84.13,32,64,32S31,51.64,31,65.82a12.07,12.07,0,0,1-.43,3.23C38.25,61.62,47,56.66,58,62.77A12.31,12.31,0,0,0,70,62.77Z"/><path class="cls-4" d="M64,77c-3.58,0-8.74,6.78-9.8,12.16a3.9,3.9,0,0,1,1.38,1.39C57.52,93.86,60.57,96,64,96s6.48-2.14,8.41-5.45a3.9,3.9,0,0,1,1.38-1.39C72.74,83.78,67.58,77,64,77Z"/><path class="cls-5" d="M46.72,37.47A37.67,37.67,0,0,0,34.34,52.32c-1.57-8.34-8.77-12.69-5.5-18.44C32,28.34,40.18,31.49,46.72,37.47Z"/><path class="cls-5" d="M93.66,52.32A37.67,37.67,0,0,0,81.28,37.47c6.54-6,14.73-9.13,17.88-3.59C102.43,39.63,95.23,44,93.66,52.32Z"/><path class="cls-4" d="M68,70s4-6,11-6c8.39,0,23.73,15.65,10.35,22.63a59.85,59.85,0,0,0,14.82-5,2,2,0,0,0,.33-2.95c-2.6-2.66-5.95-5.43-7.12-9.68C89.74,61.61,81,56.65,69.94,62.8a11.52,11.52,0,0,1-5.6,1.38h-.69a11.52,11.52,0,0,1-5.6-1.38C47,56.65,38.26,61.61,30.62,69.05c-1.17,4.25-4.51,7-7.12,9.68a2,2,0,0,0,.33,2.95,59.85,59.85,0,0,0,14.82,5C25.27,79.65,40.61,64,49,64c7,0,11,6,11,6Z"/><path class="cls-5" d="M79,64a13.5,13.5,0,0,0-9.42,4.16,1,1,0,0,1-1.69-.66c0-.92-.11-2.06-.19-3.33C67.2,56.52,66.08,44,64,44s-3.2,12.52-3.69,20.18c-.08,1.27-.14,2.4-.19,3.33a1,1,0,0,1-1.69.66A13.5,13.5,0,0,0,49,64c-8.39,0-23.73,15.65-10.35,22.63a107.1,107.1,0,0,0,13.84,2,4,4,0,0,1,1.71.55C55.26,83.78,60.42,77,64,77s8.74,6.78,9.8,12.16a4,4,0,0,1,1.71-.55,107.1,107.1,0,0,0,13.84-2C102.73,79.65,87.39,64,79,64Z"/><circle cx="79" cy="75" r="4"/><circle cx="49" cy="75" r="4"/><path class="cls-3" d="M68,86c0,1.1-1,5-4,5s-4-3.9-4-5,1-2,4-2S68,84.9,68,86Z"/></g></g></svg>